<svg xmlns="http://www.w3.org/2000/svg" viewBox="0 0 720 760" role="img" aria-labelledby="title desc">
  <title id="title">도쿄와 도쿄 근교 지도</title>
  <desc id="desc">도쿄도, 가나가와현, 지바현, 사이타마현과 닛코·하코네를 포함한 간토 지역 지도</desc>
  <rect width="720" height="760" fill="#dbe8ed"/>
  <g fill="#fff" stroke="#b9ccd4" stroke-width="2" stroke-linejoin="round">
    <path d="M88 61 245 39 384 62 475 118 491 214 452 286 377 304 342 273 271 275 223 224 151 218 103 154Z"/>
    <path d="M107 218 223 224 271 275 342 273 377 304 359 388 293 424 220 403 155 348Z"/>
    <path d="M377 304 452 286 531 239 625 262 679 337 654 449 598 522 535 497 516 413 464 393 405 408 359 388Z"/>
    <path d="M220 403 293 424 359 388 405 408 449 467 420 522 371 544 337 615 274 678 200 657 173 587 121 531 155 464Z"/>
    <path d="M405 408 464 393 516 413 535 497 497 532 449 467Z"/>
  </g>
  <path d="M464 393c32 25 58 58 71 104l-38 35-48-65-44-59Z" fill="#dbe8ed"/>
  <g fill="#68808b" font-family="sans-serif" font-size="15" font-weight="700" opacity=".82">
    <text x="264" y="181">도치기</text><text x="228" y="342">사이타마</text>
    <text x="520" y="365">지바</text><text x="334" y="454">도쿄</text><text x="242" y="535">가나가와</text>
  </g>
  <g fill="none" stroke="#91abb6" stroke-width="2" stroke-dasharray="5 6" opacity=".7">
    <path d="M293 424 342 458 405 408"/><path d="M342 458 337 615"/>
  </g>
</svg>
